<svg width="207" height="51" viewBox="0 0 207 51" fill="none" xmlns="http://www.w3.org/2000/svg">
<path d="M24.9664 50.2549C13.9383 50.2251 4.32924 43.2588 1.19467 32.8682C-1.42326 24.1617 0.274002 16.2036 6.16229 9.24887C9.78202 4.97506 14.4499 2.35547 19.9375 1.23445C23.0071 0.608392 26.169 0.582526 29.2485 1.15828C29.5929 1.2212 29.5962 1.31393 29.4621 1.59211C27.9475 4.74489 26.4401 7.90209 24.9399 11.0637C24.9027 11.1626 24.8337 11.2463 24.7438 11.3018C24.6539 11.3572 24.5482 11.3812 24.4431 11.3701C21.2878 11.4507 18.2501 12.5843 15.8134 14.5905C13.3767 16.5967 11.6808 19.3601 10.9958 22.4412C9.48397 29.1757 13.1269 36.1419 19.555 38.6108C24.6567 40.5697 29.4041 39.7898 33.7226 36.4416C33.9429 36.276 34.0339 36.2429 34.1912 36.5161C35.8471 39.4139 37.5173 42.3062 39.2019 45.1929C39.3493 45.4463 39.2963 45.5605 39.0777 45.7128C35.8249 48.0142 32.0621 49.4916 28.1125 50.0181C27.0687 50.1527 26.0185 50.2318 24.9664 50.2549Z" fill="#EF492D"/>
<path d="M42.0983 43.0851C41.9625 43.0122 41.9244 42.8632 41.8549 42.7423C39.9716 39.4857 38.0949 36.2259 36.2249 32.9627C36.1613 32.829 36.0576 32.7185 35.9281 32.6467C35.7987 32.5748 35.65 32.5452 35.5029 32.562C31.764 32.5736 28.0267 32.562 24.2877 32.562H23.8224C23.8191 32.4183 23.8713 32.279 23.9681 32.1729C25.8669 28.8744 27.7667 25.5759 29.6676 22.2774C29.7181 22.1683 29.8014 22.0777 29.906 22.0183C30.0105 21.9589 30.131 21.9337 30.2505 21.9462C34.0778 21.9561 37.904 21.9561 41.729 21.9462C41.8479 21.9338 41.9677 21.9591 42.0714 22.0185C42.1751 22.0779 42.2575 22.1685 42.3069 22.2774C44.2156 25.6035 46.1331 28.9251 48.0594 32.2424C48.1238 32.3274 48.16 32.4304 48.1629 32.537C48.1659 32.6436 48.1355 32.7484 48.076 32.8369C46.1408 36.1784 44.2128 39.5166 42.292 42.8516C42.2407 42.936 42.2175 43.0519 42.0983 43.0851Z" fill="#EF492D"/>
<path d="M34.037 8.05664C33.3515 7.37111 32.7123 6.71539 32.05 6.0696C31.8446 5.87089 31.9887 5.72352 32.0765 5.57283C32.8344 4.25307 34.0684 3.27318 35.5256 2.83402C36.4087 2.54261 37.3429 2.43921 38.2683 2.53047C39.1938 2.62173 40.0898 2.90562 40.8989 3.3639C43.8795 4.97506 43.6129 8.71237 41.8925 10.4013C41.2402 11.0294 40.5014 11.5608 39.6984 11.9794C38.8705 12.4198 38.0426 12.8355 37.2312 13.3041C36.5572 13.6899 36.0323 14.2231 35.7889 14.9947C35.6896 15.306 35.7492 15.3871 36.082 15.3838C38.2711 15.3706 40.4618 15.3838 42.6525 15.3706C42.9837 15.3706 43.1079 15.4335 43.0946 15.7945C43.0648 16.5678 43.0764 17.3427 43.0946 18.1127C43.0946 18.3578 43.0267 18.4439 42.775 18.4439C39.2547 18.4373 35.7354 18.4373 32.2172 18.4439C32.0516 18.4439 31.8976 18.4439 31.896 18.2038C31.896 15.7663 32.3464 13.4961 34.2539 11.7575C35.1626 10.9528 36.1826 10.2836 37.2825 9.77047C37.8853 9.47572 38.4946 9.19423 39.0212 8.76701C39.4815 8.39278 39.7994 7.93908 39.8326 7.3264C39.8822 6.36765 39.1238 5.65563 37.978 5.58111C36.3304 5.46355 35.1415 6.20538 34.3102 7.58306C34.2274 7.71884 34.1513 7.85794 34.037 8.05664Z" fill="#EF492D"/>
<path d="M90.2122 4.92707C90.5115 4.00576 91.8149 4.00576 92.1143 4.92707L93.4084 8.90985C93.5422 9.32187 93.9262 9.60083 94.3594 9.60083H98.5472C99.5159 9.60083 99.9187 10.8404 99.1349 11.4098L95.747 13.8713C95.3965 14.126 95.2498 14.5773 95.3837 14.9894L96.6778 18.9721C96.9772 19.8934 95.9227 20.6596 95.139 20.0902L91.751 17.6287C91.4005 17.374 90.9259 17.374 90.5754 17.6287L87.1875 20.0902C86.4038 20.6596 85.3493 19.8934 85.6486 18.9721L86.9427 14.9894C87.0766 14.5773 86.9299 14.126 86.5795 13.8713L83.1915 11.4098C82.4078 10.8404 82.8106 9.60083 83.7793 9.60083H87.967C88.4003 9.60083 88.7842 9.32187 88.9181 8.90985L90.2122 4.92707Z" fill="#EF492D"/>
<path d="M116.212 4.92707C116.512 4.00576 117.815 4.00576 118.114 4.92707L119.408 8.90985C119.542 9.32187 119.926 9.60083 120.359 9.60083H124.547C125.516 9.60083 125.919 10.8404 125.135 11.4098L121.747 13.8713C121.397 14.126 121.25 14.5773 121.384 14.9894L122.678 18.9721C122.977 19.8934 121.923 20.6596 121.139 20.0902L117.751 17.6287C117.401 17.374 116.926 17.374 116.575 17.6287L113.187 20.0902C112.404 20.6596 111.349 19.8934 111.649 18.9721L112.943 14.9894C113.077 14.5773 112.93 14.126 112.579 13.8713L109.191 11.4098C108.408 10.8404 108.811 9.60083 109.779 9.60083H113.967C114.4 9.60083 114.784 9.32187 114.918 8.90985L116.212 4.92707Z" fill="#EF492D"/>
<path d="M142.212 4.92707C142.512 4.00576 143.815 4.00576 144.114 4.92707L145.408 8.90985C145.542 9.32187 145.926 9.60083 146.359 9.60083H150.547C151.516 9.60083 151.919 10.8404 151.135 11.4098L147.747 13.8713C147.397 14.126 147.25 14.5773 147.384 14.9894L148.678 18.9721C148.977 19.8934 147.923 20.6596 147.139 20.0902L143.751 17.6287C143.401 17.374 142.926 17.374 142.575 17.6287L139.187 20.0902C138.404 20.6596 137.349 19.8934 137.649 18.9721L138.943 14.9894C139.077 14.5773 138.93 14.126 138.579 13.8713L135.191 11.4098C134.408 10.8404 134.811 9.60083 135.779 9.60083H139.967C140.4 9.60083 140.784 9.32187 140.918 8.90985L142.212 4.92707Z" fill="#EF492D"/>
<path d="M168.212 4.92707C168.512 4.00576 169.815 4.00576 170.114 4.92707L171.408 8.90985C171.542 9.32187 171.926 9.60083 172.359 9.60083H176.547C177.516 9.60083 177.919 10.8404 177.135 11.4098L173.747 13.8713C173.397 14.126 173.25 14.5773 173.384 14.9894L174.678 18.9721C174.977 19.8934 173.923 20.6596 173.139 20.0902L169.751 17.6287C169.401 17.374 168.926 17.374 168.575 17.6287L165.187 20.0902C164.404 20.6596 163.349 19.8934 163.649 18.9721L164.943 14.9894C165.077 14.5773 164.93 14.126 164.579 13.8713L161.191 11.4098C160.408 10.8404 160.811 9.60083 161.779 9.60083H165.967C166.4 9.60083 166.784 9.32187 166.918 8.90985L168.212 4.92707Z" fill="#EF492D"/>
<path d="M194.212 4.92707C194.512 4.00576 195.815 4.00576 196.114 4.92707L197.408 8.90985C197.542 9.32187 197.926 9.60083 198.359 9.60083H202.547C203.516 9.60083 203.919 10.8404 203.135 11.4098L199.747 13.8713C199.397 14.126 199.25 14.5773 199.384 14.9894L200.678 18.9721C200.977 19.8934 199.923 20.6596 199.139 20.0902L195.751 17.6287C195.401 17.374 194.926 17.374 194.575 17.6287L191.187 20.0902C190.404 20.6596 189.349 19.8934 189.649 18.9721L190.943 14.9894C191.077 14.5773 190.93 14.126 190.579 13.8713L187.191 11.4098C186.408 10.8404 186.811 9.60083 187.779 9.60083H191.967C192.4 9.60083 192.784 9.32187 192.918 8.90985L194.212 4.92707Z" fill="#EF492D"/>
<path d="M179.031 45.028C180.363 45.028 181.227 44.29 181.443 43.264H183.063C182.757 44.866 181.371 46.252 179.031 46.252C176.331 46.252 174.729 44.29 174.729 41.302C174.729 38.602 176.313 36.604 178.977 36.604C181.047 36.604 182.505 37.828 182.973 39.79C183.099 40.312 183.153 40.96 183.153 41.752H176.313C176.385 44.002 177.537 45.028 179.031 45.028ZM178.977 37.828C177.519 37.828 176.493 38.8 176.331 40.546H181.587C181.425 38.764 180.381 37.828 178.977 37.828Z" fill="white"/>
<path d="M173.455 36.7661C173.653 36.7661 173.923 36.7841 174.121 36.8381V38.2601C173.923 38.2421 173.689 38.2061 173.491 38.2061C171.763 38.2061 170.791 39.3221 170.791 41.3381V46.0001H169.207V36.8561H170.719V38.2601H170.755C171.367 37.2521 172.285 36.7661 173.455 36.7661Z" fill="white"/>
<path d="M162.903 36.604C165.135 36.604 166.503 37.738 166.503 40.15V43.66C166.503 44.668 166.593 45.442 166.719 46H165.279C165.189 45.586 165.153 45.082 165.153 44.668H165.117C164.487 45.64 163.425 46.198 161.949 46.198C160.041 46.198 158.853 45.064 158.853 43.516C158.853 42.004 159.699 41.05 162.327 40.636C163.137 40.51 164.253 40.384 164.973 40.33V39.97C164.973 38.458 164.127 37.828 162.903 37.828C161.571 37.828 160.869 38.566 160.815 39.646H159.231C159.321 37.918 160.581 36.604 162.903 36.604ZM164.973 42.094V41.536C164.271 41.59 163.281 41.698 162.579 41.824C161.013 42.058 160.473 42.508 160.473 43.408C160.473 44.344 161.157 44.974 162.345 44.974C163.083 44.974 163.785 44.722 164.235 44.254C164.793 43.678 164.973 43.174 164.973 42.094Z" fill="white"/>
<path d="M155.763 46H153.495L152.415 42.04C152.073 40.708 151.731 39.412 151.407 38.08H151.371C151.047 39.412 150.705 40.708 150.363 42.04L149.283 46H147.015L144.585 36.856H146.187L147.159 40.672C147.501 42.022 147.843 43.426 148.167 44.776H148.203C148.509 43.462 148.851 42.094 149.211 40.762L150.255 36.856H152.523L153.567 40.762C153.909 42.094 154.251 43.462 154.575 44.776H154.611C154.935 43.426 155.277 42.022 155.619 40.672L156.591 36.856H158.193L155.763 46Z" fill="white"/>
<path d="M143.144 44.7581C143.378 44.7581 143.63 44.7221 143.792 44.6681V45.9641C143.522 46.0361 143.108 46.0721 142.784 46.0721C141.038 46.0721 140.3 45.3341 140.3 43.4441V38.1161H138.716V36.8561H140.3V34.6421H141.884V36.8561H143.702V38.1161H141.884V43.2821C141.884 44.3261 142.226 44.7581 143.144 44.7581Z" fill="white"/>
<path d="M137.592 34.354C136.71 34.354 136.26 34.768 136.26 35.902V36.856H138.078V38.116H136.26V46H134.694V38.116H133.092V36.856H134.694V35.722C134.694 33.958 135.576 33.094 137.196 33.094C137.52 33.094 137.898 33.13 138.114 33.184V34.408C138.006 34.372 137.79 34.354 137.592 34.354Z" fill="white"/>
<path d="M127.756 36.604C130.438 36.604 132.112 38.44 132.112 41.428C132.112 44.416 130.438 46.252 127.756 46.252C125.074 46.252 123.418 44.416 123.418 41.428C123.418 38.44 125.074 36.604 127.756 36.604ZM127.756 37.9C126.1 37.9 125.074 39.25 125.074 41.428C125.074 43.606 126.1 44.956 127.756 44.956C129.43 44.956 130.456 43.606 130.456 41.428C130.456 39.25 129.43 37.9 127.756 37.9Z" fill="white"/>
<path d="M117.982 36.604C120.214 36.604 121.546 37.702 121.546 39.718H119.998C119.998 38.494 119.242 37.828 117.964 37.828C116.866 37.828 116.182 38.332 116.182 39.124C116.182 40.078 116.848 40.24 118.378 40.6C120.052 41.014 121.834 41.392 121.834 43.516C121.834 45.154 120.43 46.252 118.216 46.252C115.822 46.252 114.4 45.1 114.382 42.958H115.984C115.984 44.272 116.812 44.992 118.234 44.992C119.422 44.992 120.214 44.452 120.214 43.624C120.214 42.562 119.458 42.364 117.694 41.932C116.164 41.554 114.598 41.248 114.598 39.25C114.598 37.684 115.984 36.604 117.982 36.604Z" fill="white"/>
<path d="M104.956 36.6221C107.296 36.6221 108.79 38.4941 108.79 41.4101C108.79 44.3261 107.296 46.2161 104.974 46.2161C103.75 46.2161 102.688 45.6221 102.184 44.7041H102.148V49.3301H100.564V36.8561H102.13V38.1701H102.166C102.652 37.2161 103.732 36.6221 104.956 36.6221ZM104.56 37.9001C103.048 37.9001 102.076 39.2501 102.076 41.4101C102.076 43.5881 103.048 44.9381 104.56 44.9381C106.126 44.9381 107.134 43.5521 107.134 41.4101C107.134 39.2681 106.126 37.9001 104.56 37.9001Z" fill="white"/>
<path d="M94.0587 36.604C96.7407 36.604 98.4147 38.44 98.4147 41.428C98.4147 44.416 96.7407 46.252 94.0587 46.252C91.3767 46.252 89.7207 44.416 89.7207 41.428C89.7207 38.44 91.3767 36.604 94.0587 36.604ZM94.0587 37.9C92.4027 37.9 91.3767 39.25 91.3767 41.428C91.3767 43.606 92.4027 44.956 94.0587 44.956C95.7327 44.956 96.7587 43.606 96.7587 41.428C96.7587 39.25 95.7327 37.9 94.0587 37.9Z" fill="white"/>
<path d="M90.6022 34.6601H86.2282V46.0001H84.5542V34.6601H80.1802V33.1841H90.6022V34.6601Z" fill="white"/>
</svg>
