<svg width="207" height="51" viewBox="0 0 207 51" fill="none" xmlns="http://www.w3.org/2000/svg">
<path d="M91.4792 16.2394L95.1637 15.3057L96.7031 20.05L91.4792 16.2394ZM99.9585 10.1071H93.4729L91.4792 4L89.4856 10.1071H83L88.2491 13.8925L86.2554 19.9995L91.5045 16.2141L94.7347 13.8925L99.9585 10.1071Z" fill="#00B67A"/>
<path d="M117.479 16.2394L121.164 15.3057L122.703 20.05L117.479 16.2394ZM125.958 10.1071H119.473L117.479 4L115.486 10.1071H109L114.249 13.8925L112.255 19.9995L117.504 16.2141L120.735 13.8925L125.958 10.1071Z" fill="#00B67A"/>
<path d="M143.479 16.2394L147.164 15.3057L148.703 20.05L143.479 16.2394ZM151.958 10.1071H145.473L143.479 4L141.486 10.1071H135L140.249 13.8925L138.255 19.9995L143.504 16.2141L146.735 13.8925L151.958 10.1071Z" fill="#00B67A"/>
<path d="M169.479 16.2394L173.164 15.3057L174.703 20.05L169.479 16.2394ZM177.958 10.1071H171.473L169.479 4L167.486 10.1071H161L166.249 13.8925L164.255 19.9995L169.504 16.2141L172.735 13.8925L177.958 10.1071Z" fill="#00B67A"/>
<path d="M195.479 16.2394L199.164 15.3057L200.703 20.05L195.479 16.2394ZM203.958 10.1071H197.473L195.479 4L193.486 10.1071H187L192.249 13.8925L190.255 19.9995L195.504 16.2141L198.735 13.8925L203.958 10.1071Z" fill="#A4B1CD"/>
<path d="M193.486 10.1071L195.479 4L195.504 16.2141L190.255 19.9995L192.249 13.8925L187 10.1071H193.486Z" fill="#00B67A"/>
<path d="M53 19.1085H32.7612L26.5098 0L20.2389 19.1085L0 19.0891L16.3903 30.9109L10.1194 50L26.5098 38.1977L42.8806 50L36.6292 30.9109L53 19.1085Z" fill="#00B67A"/>
<path d="M191.651 45.028C192.983 45.028 193.847 44.29 194.063 43.264H195.683C195.377 44.866 193.991 46.252 191.651 46.252C188.951 46.252 187.349 44.29 187.349 41.302C187.349 38.602 188.933 36.604 191.597 36.604C193.667 36.604 195.125 37.828 195.593 39.79C195.719 40.312 195.773 40.96 195.773 41.752H188.933C189.005 44.002 190.157 45.028 191.651 45.028ZM191.597 37.828C190.139 37.828 189.113 38.8 188.951 40.546H194.207C194.045 38.764 193.001 37.828 191.597 37.828Z" fill="white"/>
<path d="M186.076 36.7659C186.274 36.7659 186.544 36.7839 186.742 36.8379V38.2599C186.544 38.2419 186.31 38.2059 186.112 38.2059C184.384 38.2059 183.412 39.3219 183.412 41.3379V45.9999H181.828V36.8559H183.34V38.2599H183.376C183.988 37.2519 184.906 36.7659 186.076 36.7659Z" fill="white"/>
<path d="M175.322 36.604C178.004 36.604 179.678 38.44 179.678 41.428C179.678 44.416 178.004 46.252 175.322 46.252C172.64 46.252 170.984 44.416 170.984 41.428C170.984 38.44 172.64 36.604 175.322 36.604ZM175.322 37.9C173.666 37.9 172.64 39.25 172.64 41.428C172.64 43.606 173.666 44.956 175.322 44.956C176.996 44.956 178.022 43.606 178.022 41.428C178.022 39.25 176.996 37.9 175.322 37.9Z" fill="white"/>
<path d="M165.565 36.604C167.761 36.604 169.291 38.044 169.471 40.096H167.815C167.707 38.8 166.807 37.9 165.547 37.9C163.927 37.9 162.937 39.25 162.937 41.428C162.937 43.624 163.927 44.956 165.547 44.956C166.807 44.956 167.707 43.948 167.815 42.634H169.471C169.291 44.722 167.797 46.252 165.565 46.252C162.919 46.252 161.263 44.398 161.263 41.428C161.263 38.458 162.919 36.604 165.565 36.604Z" fill="white"/>
<path d="M154.74 32.9319C157.8 32.9319 159.33 34.3719 159.33 37.1439H157.656C157.656 35.2539 156.612 34.3539 154.722 34.3539C153.138 34.3539 152.184 35.1279 152.184 36.3519C152.184 37.7199 153.174 38.1159 155.28 38.6379C157.71 39.2319 159.636 39.8439 159.636 42.4719C159.636 44.7759 157.836 46.2519 155.046 46.2519C152.058 46.2519 150.258 44.7039 150.258 41.7519H151.968C151.968 43.8579 153.138 44.8299 155.064 44.8299C156.9 44.8299 157.926 43.9839 157.926 42.5619C157.926 41.1399 156.864 40.7799 154.794 40.2579C152.328 39.6459 150.492 39.0339 150.492 36.4599C150.492 34.3899 152.13 32.9319 154.74 32.9319Z" fill="white"/>
<path d="M148.417 44.7578C148.651 44.7578 148.903 44.7218 149.065 44.6678V45.9638C148.795 46.0358 148.381 46.0718 148.057 46.0718C146.311 46.0718 145.573 45.3338 145.573 43.4438V38.1158H143.989V36.8558H145.573V34.6418H147.157V36.8558H148.975V38.1158H147.157V43.2818C147.157 44.3258 147.499 44.7578 148.417 44.7578Z" fill="white"/>
<path d="M139.198 36.604C141.43 36.604 142.762 37.702 142.762 39.718H141.214C141.214 38.494 140.458 37.828 139.18 37.828C138.082 37.828 137.398 38.332 137.398 39.124C137.398 40.078 138.064 40.24 139.594 40.6C141.268 41.014 143.05 41.392 143.05 43.516C143.05 45.154 141.646 46.252 139.432 46.252C137.038 46.252 135.616 45.1 135.598 42.958H137.2C137.2 44.272 138.028 44.992 139.45 44.992C140.638 44.992 141.43 44.452 141.43 43.624C141.43 42.562 140.674 42.364 138.91 41.932C137.38 41.554 135.814 41.248 135.814 39.25C135.814 37.684 137.2 36.604 139.198 36.604Z" fill="white"/>
<path d="M129.133 46.198C127.045 46.198 125.839 44.938 125.839 42.436V36.856H127.423V42.31C127.423 44.218 128.215 44.902 129.529 44.902C130.807 44.902 131.905 43.93 131.905 42.094V36.856H133.489V46H131.959V44.794H131.923C131.365 45.64 130.357 46.198 129.133 46.198Z" fill="white"/>
<path d="M123.656 36.7659C123.854 36.7659 124.124 36.7839 124.322 36.8379V38.2599C124.124 38.2419 123.89 38.2059 123.692 38.2059C121.964 38.2059 120.992 39.3219 120.992 41.3379V45.9999H119.408V36.8559H120.92V38.2599H120.956C121.568 37.2519 122.486 36.7659 123.656 36.7659Z" fill="white"/>
<path d="M119.026 34.6598H114.652V45.9998H112.978V34.6598H108.604V33.1838H119.026V34.6598Z" fill="white"/>
<path d="M102.772 35.2719H97.2816L96.9216 39.0339H96.9576C97.5156 38.3859 98.4336 38.0259 99.4056 38.0259C101.782 38.0259 103.33 39.5919 103.33 42.0219C103.33 44.5959 101.656 46.2519 99.0816 46.2519C96.7056 46.2519 95.1396 44.9379 95.1396 42.7779H96.8316C96.8496 44.0739 97.8036 44.8119 99.0816 44.8119C100.648 44.8119 101.62 43.7859 101.62 42.0759C101.62 40.4019 100.666 39.4299 99.1716 39.4299C97.9836 39.4299 97.1556 40.0419 96.8676 41.1399L95.2296 41.0319L95.8956 33.8679H102.772V35.2719Z" fill="white"/>
<path d="M93.1134 45.9998H91.1694V43.8938H93.1134V45.9998Z" fill="white"/>
<path d="M89.6838 42.8679H87.7038V45.9999H86.0658V42.8679H80.3418V41.3739L85.4898 33.8679H87.7038V41.4999H89.6838V42.8679ZM81.9258 41.4999H86.0838V39.8439C86.0838 38.3499 86.1018 36.8379 86.1378 35.3259H86.1018C85.1838 36.7479 84.2658 38.1159 83.3118 39.5019L81.9258 41.4999Z" fill="white"/>
</svg>
